# xmcd
#
# Track frame offsets:
#	150
#	12720
#	28288
#	39805
#	54360
#	66448
#	81678
#	96450
#	111450
#	128525
#	143663
#	158128
#	174855
#	189558
#	203270
#	222020
#	239930
#
# Disc length: 3428 seconds
#
# Revision: 2
# Processed by: cddbd v1.5.2PL0 Copyright (c) Steve Scherf et al.
# Submitted via: audiograbber 1.83.01
#
DISCID=f40d6211
DTITLE=Dolly Parton - Legendary [Disc 2]
DYEAR=2000
DGENRE=Country
TTITLE0=9 To 5
TTITLE1=Old Flames (Can't Hold A Candle To You)
TTITLE2=Baby I'm Burning
TTITLE3=Sweet Summer Lovin'
TTITLE4=The Bargain Store
TTITLE5=Think About Love
TTITLE6=The Seeker
TTITLE7=Don't Call It Love
TTITLE8=Save The Last Dance For Me
TTITLE9=You're The Only One
TTITLE10=Heartbreak Express
TTITLE11=Single Women
TTITLE12=Potential New Boyfriend
TTITLE13=Two Doors Down
TTITLE14=Islands In The Stream (with Kenny Rogers)
TTITLE15=Starting Over Again
TTITLE16=We Had It All
EXTD=ID3G: 2
EXTT0=
EXTT1=
EXTT2=
EXTT3=
EXTT4=
EXTT5=
EXTT6=
EXTT7=
EXTT8=
EXTT9=
EXTT10=
EXTT11=
EXTT12=
EXTT13=
EXTT14=
EXTT15=
EXTT16=
PLAYORDER=
